<svg width="41" height="42" viewBox="0 0 41 42" fill="none" xmlns="http://www.w3.org/2000/svg">
<path d="M38.4759 29.0936L27.7491 29.2943C27.3875 29.2943 27.026 29.4953 26.7848 29.8167C25.7002 31.5443 22.3255 36.3653 19.3122 39.74C18.6695 40.3426 17.6249 40.182 17.183 39.4186C17.1026 39.2579 16.9821 39.0972 16.9821 39.057C16.3393 37.5705 14.3707 28.973 13.4868 27.8883C12.4021 26.6026 3.08139 24.2725 1.63508 23.7904C0.590517 23.4288 0.309285 22.0628 1.1128 21.2995C3.48315 19.0497 7.29983 15.8758 10.0317 14.0679C10.3933 13.867 10.6343 13.4652 10.6343 13.0634L10.4737 2.85898C10.4737 2.05547 11.2772 1.45284 12.0405 1.81442C14.3305 2.77863 18.4284 5.34985 20.9996 7.59968C21.2809 7.92107 21.7228 8.04158 22.1246 7.92107C23.9727 7.3988 29.1552 5.91231 34.2174 5.63108C34.9004 5.59091 35.4628 6.15336 35.3824 6.87653C35.1414 9.28707 34.4584 14.4696 33.3334 17.8846C33.213 18.2462 33.2531 18.6078 33.5343 18.9291C34.619 20.3353 37.1903 23.8707 39.4401 27.4061C39.8419 28.1695 39.3598 29.0936 38.4759 29.0936Z" fill="white"/>
<path d="M26.3027 16.5186C26.3027 17.8444 25.2181 18.9693 23.8922 18.9693C22.5665 18.9693 21.4818 17.8846 21.4818 16.5186C21.4818 15.1928 22.5665 14.0679 23.8922 14.0679C25.2181 14.0679 26.3027 15.1928 26.3027 16.5186ZM38.4759 29.0936L27.7491 29.2943C27.3875 29.2943 27.0259 29.4953 26.7848 29.8167C25.7002 31.5443 22.3255 36.3653 19.3122 39.74C18.6695 40.3426 17.6249 40.182 17.183 39.4186C17.1026 39.2579 16.9821 39.0972 16.9821 39.057C16.3393 37.5705 14.3707 28.973 13.4868 27.8883C12.4021 26.6026 3.08139 24.2725 1.63508 23.7904C0.590517 23.4288 0.309285 22.0628 1.1128 21.2995C3.48315 19.0497 7.29983 15.8758 10.0317 14.0679C10.3933 13.867 10.6343 13.4652 10.6343 13.0634L10.4737 2.85898C10.4737 2.05547 11.2772 1.45284 12.0405 1.81442C14.3305 2.77863 18.4284 5.34985 20.9996 7.59968C21.2809 7.92107 21.7228 8.04158 22.1246 7.92107C23.9727 7.3988 29.1552 5.91231 34.2174 5.63108C34.9004 5.59091 35.4628 6.15336 35.3824 6.87653C35.1414 9.28707 34.4584 14.4696 33.3334 17.8846C33.213 18.2462 33.2531 18.6078 33.5343 18.9291C34.619 20.3353 37.1903 23.8707 39.4401 27.4061C39.8419 28.1695 39.3598 29.0936 38.4759 29.0936ZM32.1684 9.20671C32.2488 8.92546 31.9676 8.64423 31.6461 8.68444C20.7987 9.80935 10.8754 17.7239 7.66137 20.5763C7.1391 21.0182 7.29983 21.8619 7.94262 22.1031C7.94262 22.1031 14.8527 23.2279 16.5 24.6341C17.7052 25.6786 18.8704 31.9459 18.8704 31.9459C19.1114 32.5486 19.8748 32.6691 20.3167 32.2272C29.6774 22.6253 31.8068 11.8583 32.1684 9.20671Z" fill="url(#paint0_linear_1_4091)"/>
<path d="M13.8082 35.3242C13.7279 34.9626 13.6073 34.601 13.4868 34.1992L10.0315 37.8553C9.79044 38.1365 9.66992 38.4981 9.66992 38.8598C9.66992 39.2615 9.83065 39.6232 10.1119 39.8642C10.3529 40.1052 10.7145 40.2258 11.0761 40.2258C11.4779 40.2258 11.8396 40.0651 12.1208 39.7839L14.4108 37.3732C14.21 36.8107 14.0091 36.1277 13.8082 35.3242Z" fill="url(#paint1_linear_1_4091)"/>
<path d="M11.92 29.1741C11.6388 28.9732 11.0763 28.7724 10.4335 28.5312L1.83596 37.2895C1.55473 37.5708 1.4342 37.9323 1.4342 38.2939C1.4342 38.6555 1.55473 39.0573 1.83596 39.2983C2.11719 39.5393 2.47876 39.7001 2.84035 39.7001C3.20192 39.7001 3.5635 39.5795 3.88491 39.2983L12.402 30.6204C12.2414 30.0178 12.0807 29.4955 11.92 29.1741Z" fill="url(#paint2_linear_1_4091)"/>
<path d="M4.16621 26.5625L1.31364 29.4552C1.07257 29.7365 0.911865 30.0981 0.911865 30.4597C0.911865 30.8213 1.03239 31.2231 1.31364 31.4641C1.59488 31.7052 1.95646 31.8659 2.31806 31.8659C2.67965 31.8659 3.08143 31.7052 3.32248 31.4641L7.3 27.4464C6.17503 27.1652 5.0501 26.8437 4.16621 26.5625Z" fill="url(#paint3_linear_1_4091)"/>
<path d="M13.8082 35.3242C13.7279 34.9626 13.6073 34.601 13.4868 34.1992L10.0315 37.8553C9.79044 38.1365 9.66992 38.4981 9.66992 38.8598C9.66992 39.2615 9.83065 39.6232 10.1119 39.8642C10.3529 40.1052 10.7145 40.2258 11.0761 40.2258C11.4779 40.2258 11.8396 40.0651 12.1208 39.7839L14.4108 37.3732C14.21 36.8107 14.0091 36.1277 13.8082 35.3242Z" fill="url(#paint4_linear_1_4091)" stroke="url(#paint5_linear_1_4091)" strokeWidth="1.17121"/>
<path d="M4.16621 26.5625L1.31364 29.4552C1.07257 29.7365 0.911865 30.0981 0.911865 30.4597C0.911865 30.8213 1.03239 31.2231 1.31364 31.4641C1.59488 31.7052 1.95646 31.8659 2.31806 31.8659C2.67965 31.8659 3.08143 31.7052 3.32248 31.4641L7.3 27.4464C6.17503 27.1652 5.0501 26.8437 4.16621 26.5625Z" stroke="url(#paint6_linear_1_4091)" strokeWidth="1.17121"/>
<path d="M11.92 29.1741C11.6388 28.9732 11.0763 28.7724 10.4335 28.5312L1.83596 37.2895C1.55473 37.5708 1.4342 37.9323 1.4342 38.2939C1.4342 38.6555 1.55473 39.0573 1.83596 39.2983C2.11719 39.5393 2.47876 39.7001 2.84035 39.7001C3.20192 39.7001 3.5635 39.5795 3.88491 39.2983L12.402 30.6204C12.2414 30.0178 12.0807 29.4955 11.92 29.1741Z" stroke="url(#paint7_linear_1_4091)" stroke-opacity="0.5" strokeWidth="1.17121"/>
<g filter="url(#filter0_ii_1_4091)">
<path d="M38.4759 29.0936L27.7491 29.2943C27.3875 29.2943 27.026 29.4953 26.7848 29.8167C25.7002 31.5443 22.3255 36.3653 19.3122 39.74C18.6695 40.3426 17.6249 40.182 17.183 39.4186C17.1026 39.2579 16.9821 39.0972 16.9821 39.057C16.3393 37.5705 14.3707 28.973 13.4868 27.8883C12.4021 26.6026 3.08139 24.2725 1.63508 23.7904C0.590517 23.4288 0.309285 22.0628 1.1128 21.2995C3.48315 19.0497 7.29983 15.8758 10.0317 14.0679C10.3933 13.867 10.6343 13.4652 10.6343 13.0636L10.4737 2.85898C10.4737 2.05547 11.2772 1.45284 12.0405 1.81442C14.3305 2.77863 18.4284 5.34985 20.9996 7.59968C21.2809 7.92107 21.7228 8.04158 22.1246 7.92107C23.9727 7.3988 29.1552 5.91231 34.2174 5.63108C34.9004 5.59091 35.4628 6.15336 35.3824 6.87653C35.1414 9.28707 34.4584 14.4696 33.3334 17.8846C33.213 18.2462 33.2531 18.6078 33.5343 18.9291C34.6192 20.3353 37.1903 23.8707 39.4401 27.4061C39.8419 28.1695 39.3598 29.0936 38.4759 29.0936Z" stroke="url(#paint8_linear_1_4091)" strokeWidth="1.17121"/>
</g>
<defs>
<filter id="filter0_ii_1_4091" x="0.0633545" y="1.11694" width="40.1025" height="39.8104" filterUnits="userSpaceOnUse" color-interpolation-filters="sRGB">
<feFlood flood-opacity="0" result="BackgroundImageFix"/>
<feBlend mode="normal" in="SourceGraphic" in2="BackgroundImageFix" result="shape"/>
<feColorMatrix in="SourceAlpha" type="matrix" values="0 0 0 0 0 0 0 0 0 0 0 0 0 0 0 0 0 0 127 0" result="hardAlpha"/>
<feOffset dy="0.234242"/>
<feGaussianBlur stdDeviation="0.117121"/>
<feComposite in2="hardAlpha" operator="arithmetic" k2="-1" k3="1"/>
<feColorMatrix type="matrix" values="0 0 0 0 1 0 0 0 0 1 0 0 0 0 1 0 0 0 0.8 0"/>
<feBlend mode="normal" in2="shape" result="effect1_innerShadow_1_4091"/>
<feColorMatrix in="SourceAlpha" type="matrix" values="0 0 0 0 0 0 0 0 0 0 0 0 0 0 0 0 0 0 127 0" result="hardAlpha"/>
<feOffset dy="0.117121"/>
<feGaussianBlur stdDeviation="0.117121"/>
<feComposite in2="hardAlpha" operator="arithmetic" k2="-1" k3="1"/>
<feColorMatrix type="matrix" values="0 0 0 0 0.441667 0 0 0 0 0.441667 0 0 0 0 0.441667 0 0 0 0.4 0"/>
<feBlend mode="normal" in2="effect1_innerShadow_1_4091" result="effect2_innerShadow_1_4091"/>
</filter>
<linearGradient id="paint0_linear_1_4091" x1="33.7658" y1="6.65856" x2="10.0862" y2="30.3382" gradientUnits="userSpaceOnUse">
<stop offset="0.1745" stopColor="#52BFCA"/>
<stop offset="0.9163" stopColor="#7238DF"/>
</linearGradient>
<linearGradient id="paint1_linear_1_4091" x1="6.56761" y1="43.124" x2="15.852" y2="33.9978" gradientUnits="userSpaceOnUse">
<stop offset="0.1875" stopColor="#25E2EA"/>
<stop offset="1" stopColor="#19A6D1"/>
</linearGradient>
<linearGradient id="paint2_linear_1_4091" x1="-5.81906" y1="46.7134" x2="14.8932" y2="26.3537" gradientUnits="userSpaceOnUse">
<stop stopColor="#A443FD"/>
<stop offset="1" stopColor="#A959F3"/>
</linearGradient>
<linearGradient id="paint3_linear_1_4091" x1="-2.48856" y1="35.1744" x2="7.77739" y2="25.0833" gradientUnits="userSpaceOnUse">
<stop offset="0.3958" stopColor="#E55EC4"/>
<stop offset="1" stopColor="#8225D0"/>
</linearGradient>
<linearGradient id="paint4_linear_1_4091" x1="6.56761" y1="43.124" x2="15.852" y2="33.9978" gradientUnits="userSpaceOnUse">
<stop offset="0.1875" stopColor="#25E2EA"/>
<stop offset="1" stopColor="#19A6D1"/>
</linearGradient>
<linearGradient id="paint5_linear_1_4091" x1="9.66992" y1="40.517" x2="13.2049" y2="36.8506" gradientUnits="userSpaceOnUse">
<stop/>
<stop offset="0.0001" stopColor="#E4FCFF"/>
<stop offset="1" stopColor="#E4FCFF" stopOpacity="0"/>
</linearGradient>
<linearGradient id="paint6_linear_1_4091" x1="0.911865" y1="31.7207" x2="5.54781" y2="26.9837" gradientUnits="userSpaceOnUse">
<stop stopColor="#FFF5FE"/>
<stop offset="0.769332" stopColor="#FFF5FE" stopOpacity="0"/>
</linearGradient>
<linearGradient id="paint7_linear_1_4091" x1="1.88141" y1="39.3457" x2="11.8422" y2="29.1578" gradientUnits="userSpaceOnUse">
<stop stopColor="#F6EDFE"/>
<stop offset="0.850896" stopColor="#A851F8" stopOpacity="0"/>
</linearGradient>
<linearGradient id="paint8_linear_1_4091" x1="35.625" y1="5.37482" x2="9.86314" y2="32.402" gradientUnits="userSpaceOnUse">
<stop offset="0.00924772" stopColor="#2D9FAB"/>
<stop offset="0.0885417" stopColor="#2D9FAB" stopOpacity="0.823892"/>
<stop offset="0.171875" stopColor="#2D9FAB" stopOpacity="0.8"/>
<stop offset="0.302083" stopColor="#2D9FAB" stopOpacity="0.8"/>
<stop offset="1" stopColor="white" stopOpacity="0.5"/>
</linearGradient>
</defs>
</svg>
