<svg width="43" height="42" viewBox="0 0 43 42" fill="none" xmlns="http://www.w3.org/2000/svg">
<path fill-rule="evenodd" clip-rule="evenodd" d="M35.2031 7.94873L33.328 8.87276C36.9835 11.7728 38.7706 15.5188 39.1028 20.0517C38.8251 28.801 34.6231 34.4244 27.405 36.8361C19.0656 39.3045 13.7813 37.3072 8.66787 32.1888L8.34576 34.1564L10.4247 36.2846C17.6563 43.6882 29.6459 43.9313 37.1821 36.8269C44.7182 29.7221 44.9657 17.9437 37.7337 10.5397L35.2031 7.94873Z" fill="#FEEF7C"/>
<path fill-rule="evenodd" clip-rule="evenodd" d="M7.31713 33.0586L8.57346 31.9806C3.35367 24.7137 3.13495 14.0749 10.2784 8.21794C15.5736 3.87646 26.0804 1.62615 34.4862 8.89703L35.1136 7.81276L33.0652 5.71536C25.8333 -1.68826 13.844 -1.93136 6.30751 5.17341C-1.22862 12.2778 -1.47571 24.0566 5.75586 31.4603L7.31713 33.0586Z" fill="#5CD3CB"/>
<path d="M2.80096 21.0498C2.80096 31.3366 11.2907 39.6771 21.7617 39.6771C32.2345 39.6771 40.7238 31.3366 40.7238 21.0498C40.7238 10.7611 32.2345 2.42065 21.7617 2.42065C11.2907 2.42065 2.80096 10.7611 2.80096 21.0498ZM15.9984 24.4188C16.1977 23.7991 15.976 23.1237 15.446 22.7347C14.0426 21.705 11.2758 19.6751 9.41668 18.3111C9.14832 18.1141 9.03858 17.7706 9.14421 17.4582C9.24984 17.1457 9.54694 16.9353 9.88211 16.9353H17.0879C17.7586 16.9353 18.3536 16.5129 18.5645 15.8877C19.1325 14.202 20.2616 10.8521 21.0103 8.63146C21.1156 8.31942 21.4123 8.10821 21.7471 8.10784C22.0819 8.10748 22.3797 8.31758 22.4857 8.62926C23.2423 10.8517 24.3848 14.2072 24.9585 15.8921C25.1709 16.5151 25.7647 16.9353 26.4335 16.9353C28.1381 16.9353 31.4219 16.9353 33.6576 16.9353C33.9917 16.9353 34.2888 17.145 34.3948 17.4567C34.5008 17.7684 34.3925 18.1116 34.1253 18.3092C32.2718 19.681 29.5034 21.7292 28.103 22.7655C27.576 23.1552 27.3569 23.8296 27.5559 24.4471C28.0974 26.1272 29.1836 29.4966 29.9174 31.7726C30.0196 32.0905 29.9002 32.4374 29.6221 32.6288C29.3441 32.8202 28.9719 32.8125 28.7025 32.6093C26.8404 31.205 24.1198 29.1534 22.6951 28.0794C22.1349 27.657 21.3556 27.6581 20.7968 28.0827C19.386 29.1541 16.7024 31.1929 14.8559 32.5954C14.5872 32.7996 14.2143 32.8088 13.9355 32.6174C13.6567 32.4264 13.5365 32.0795 13.6388 31.7612C14.3726 29.4786 15.4572 26.1033 15.9984 24.4188Z" fill="black"/>
</svg>
